<?xml version="1.0" standalone="no"?>
<!DOCTYPE svg PUBLIC "-//W3C//DTD SVG 20010904//EN"
 "http://www.w3.org/TR/2001/REC-SVG-20010904/DTD/svg10.dtd">
<svg version="1.0" xmlns="http://www.w3.org/2000/svg"
 width="500.000000pt" height="500.000000pt" viewBox="0 0 500.000000 500.000000"
 preserveAspectRatio="xMidYMid meet">
<metadata>
Created by potrace 1.16, written by Peter Selinger 2001-2019
</metadata>
<g transform="translate(0.000000,500.000000) scale(0.100000,-0.100000)"
fill="#000000" stroke="none">
<path d="M690 3019 l0 -41 31 26 c17 14 40 26 51 26 20 0 20 0 1 -32 -10 -18
-33 -42 -51 -53 l-31 -20 -1 -330 c0 -262 3 -343 15 -388 20 -77 49 -131 96
-181 21 -22 55 -58 74 -78 82 -86 250 -133 399 -111 91 13 194 61 246 116 22
23 55 58 74 78 40 43 68 94 90 168 13 46 16 111 16 393 0 210 -4 338 -10 338
-16 0 -77 59 -83 80 -7 29 24 26 62 -6 l31 -26 0 41 0 41 -505 0 -505 0 0 -41z
m453 -301 c12 -6 17 -21 17 -53 l0 -45 -44 0 c-35 0 -45 4 -49 20 -7 26 -36
37 -48 19 -15 -25 -11 -135 7 -149 12 -11 18 -10 32 3 10 11 12 17 4 17 -7 0
-12 13 -12 30 l0 30 65 0 65 0 0 -30 c0 -16 -4 -30 -10 -30 -5 0 -10 -16 -10
-35 0 -44 -22 -56 -103 -57 -109 -2 -158 44 -159 146 0 88 28 128 105 146 36
9 112 2 140 -12z m275 -8 c80 -49 82 -194 3 -247 -30 -20 -46 -23 -132 -23
l-99 0 0 30 c0 17 5 30 10 30 6 0 10 35 10 85 0 50 -4 85 -10 85 -5 0 -10 14
-10 30 l0 30 98 0 c80 0 103 -4 130 -20z"/>
<path d="M2170 2928 c-54 -28 -85 -72 -95 -134 -14 -98 20 -186 88 -224 47
-27 150 -31 225 -11 l42 12 0 54 c0 42 3 55 15 55 10 0 15 11 15 35 l0 35 -90
0 -90 0 0 -34 c0 -21 6 -36 15 -40 19 -7 9 -33 -16 -41 -38 -12 -49 11 -49
105 0 105 4 120 37 120 18 0 28 -8 36 -30 11 -29 14 -30 69 -30 l58 0 0 60 c0
57 -2 61 -27 72 -16 6 -64 13 -108 15 -69 4 -86 1 -125 -19z"/>
<path d="M2470 2900 c0 -29 4 -40 15 -40 12 0 15 -19 15 -115 0 -96 -3 -115
-15 -115 -11 0 -15 -11 -15 -40 l0 -40 170 0 170 0 0 80 0 80 -55 0 -55 0 0
-40 c0 -38 -2 -40 -30 -40 -29 0 -30 2 -30 45 0 38 3 45 20 45 16 0 20 7 20
30 0 23 -4 30 -20 30 -17 0 -20 7 -20 40 0 38 2 40 30 40 28 0 30 -3 30 -35
l0 -35 55 0 55 0 0 75 0 75 -170 0 -170 0 0 -40z"/>
<path d="M2830 2880 l0 -60 45 0 c38 0 45 3 45 20 0 11 7 20 15 20 12 0 15
-19 15 -115 0 -96 -3 -115 -15 -115 -11 0 -15 -11 -15 -40 l0 -40 105 0 105 0
0 39 c0 30 -4 40 -20 44 -18 5 -20 14 -20 116 0 104 1 111 20 111 13 0 20 -7
20 -20 0 -17 7 -20 40 -20 l40 0 0 60 0 60 -190 0 -190 0 0 -60z"/>
<path d="M3230 2900 c0 -29 4 -40 15 -40 12 0 15 -19 15 -110 0 -89 -3 -112
-15 -116 -10 -4 -15 -20 -15 -46 l0 -40 138 4 c154 3 190 16 225 76 25 42 34
147 17 198 -30 93 -75 114 -250 114 l-130 0 0 -40z"/>
<path d="M3640 2900 c0 -22 5 -40 10 -40 6 0 10 -45 10 -115 0 -70 -4 -115
-10 -115 -5 0 -10 -18 -10 -40 l0 -40 170 0 170 0 0 80 0 80 -55 0 -55 0 0
-41 c0 -39 -1 -40 -32 -37 -31 3 -33 6 -36 46 -3 39 -1 42 22 42 22 0 26 4 26
30 0 25 -4 30 -25 30 -22 0 -25 4 -25 40 0 39 1 40 35 40 33 0 35 -2 35 -35
l0 -35 55 0 55 0 0 75 0 75 -170 0 -170 0 0 -40z"/>
<path d="M4000 2901 c0 -22 4 -41 9 -43 6 -1 30 -70 54 -153 l43 -150 83 0 84
0 43 150 c24 82 48 151 54 153 5 2 10 21 10 43 l0 39 -85 0 -85 0 0 -35 c0
-19 6 -38 14 -42 12 -7 12 -20 -3 -93 -19 -91 -21 -90 -42 19 -9 49 -10 66 -1
69 7 2 12 21 12 43 l0 39 -95 0 -95 0 0 -39z"/>
</g>
</svg>
